<mxfile host="65bd71144e">
    <diagram id="92rV5NoxCCfC8TaJ1O_a" name="Page-1">
        <mxGraphModel dx="1955" dy="1615" grid="1" gridSize="10" guides="1" tooltips="1" connect="1" arrows="1" fold="1" page="1" pageScale="1" pageWidth="850" pageHeight="1100" math="0" shadow="0">
            <root>
                <mxCell id="0"/>
                <mxCell id="1" parent="0"/>
                <mxCell id="20" value="" style="group" vertex="1" connectable="0" parent="1">
                    <mxGeometry x="80" y="160" width="640" height="590" as="geometry"/>
                </mxCell>
                <mxCell id="2" value="Plant" style="text;html=1;strokeColor=none;fillColor=none;align=center;verticalAlign=middle;whiteSpace=wrap;rounded=0;sketch=1;hachureGap=4;jiggle=2;curveFitting=1;fontFamily=Architects Daughter;fontSource=https%3A%2F%2Ffonts.googleapis.com%2Fcss%3Ffamily%3DArchitects%2BDaughter;fontSize=20;" vertex="1" parent="20">
                    <mxGeometry x="269.47368421052636" y="30" width="101.05263157894736" height="93.15789473684211" as="geometry"/>
                </mxCell>
                <mxCell id="3" value="" style="endArrow=none;html=1;sketch=1;hachureGap=4;jiggle=2;curveFitting=1;fontFamily=Architects Daughter;fontSource=https%3A%2F%2Ffonts.googleapis.com%2Fcss%3Ffamily%3DArchitects%2BDaughter;fontSize=16;entryX=0.5;entryY=0;entryDx=0;entryDy=0;" edge="1" parent="20" target="6">
                    <mxGeometry width="50" height="50" relative="1" as="geometry">
                        <mxPoint x="280" y="90" as="sourcePoint"/>
                        <mxPoint x="202.1052631578947" y="248.42105263157896" as="targetPoint"/>
                    </mxGeometry>
                </mxCell>
                <mxCell id="5" value="" style="endArrow=none;html=1;sketch=1;hachureGap=4;jiggle=2;curveFitting=1;fontFamily=Architects Daughter;fontSource=https%3A%2F%2Ffonts.googleapis.com%2Fcss%3Ffamily%3DArchitects%2BDaughter;fontSize=16;exitX=0.5;exitY=0;exitDx=0;exitDy=0;" edge="1" parent="20" source="7">
                    <mxGeometry width="50" height="50" relative="1" as="geometry">
                        <mxPoint x="421.05263157894734" y="248.42105263157896" as="sourcePoint"/>
                        <mxPoint x="353.6842105263158" y="93.15789473684211" as="targetPoint"/>
                    </mxGeometry>
                </mxCell>
                <mxCell id="6" value="Vascular" style="text;html=1;strokeColor=none;fillColor=none;align=center;verticalAlign=middle;whiteSpace=wrap;rounded=0;sketch=1;hachureGap=4;jiggle=2;curveFitting=1;fontFamily=Architects Daughter;fontSource=https%3A%2F%2Ffonts.googleapis.com%2Fcss%3Ffamily%3DArchitects%2BDaughter;fontSize=20;" vertex="1" parent="20">
                    <mxGeometry x="84.21052631578947" y="248.42105263157896" width="101.05263157894736" height="93.15789473684211" as="geometry"/>
                </mxCell>
                <mxCell id="7" value="Non-Vascular" style="text;html=1;strokeColor=none;fillColor=none;align=center;verticalAlign=middle;whiteSpace=wrap;rounded=0;sketch=1;hachureGap=4;jiggle=2;curveFitting=1;fontFamily=Architects Daughter;fontSource=https%3A%2F%2Ffonts.googleapis.com%2Fcss%3Ffamily%3DArchitects%2BDaughter;fontSize=20;" vertex="1" parent="20">
                    <mxGeometry x="389.99631578947367" y="248.42105263157896" width="218.9473684210526" height="93.15789473684211" as="geometry"/>
                </mxCell>
                <mxCell id="10" value="Moss" style="text;html=1;strokeColor=none;fillColor=none;align=center;verticalAlign=middle;whiteSpace=wrap;rounded=0;sketch=1;hachureGap=4;jiggle=2;curveFitting=1;fontFamily=Architects Daughter;fontSource=https%3A%2F%2Ffonts.googleapis.com%2Fcss%3Ffamily%3DArchitects%2BDaughter;fontSize=20;" vertex="1" parent="20">
                    <mxGeometry x="370.52631578947364" y="496.8421052631579" width="101.05263157894736" height="93.15789473684211" as="geometry"/>
                </mxCell>
                <mxCell id="11" value="" style="endArrow=none;html=1;sketch=1;hachureGap=4;jiggle=2;curveFitting=1;fontFamily=Architects Daughter;fontSource=https%3A%2F%2Ffonts.googleapis.com%2Fcss%3Ffamily%3DArchitects%2BDaughter;fontSize=16;exitX=0;exitY=1;exitDx=0;exitDy=0;" edge="1" parent="20">
                    <mxGeometry width="50" height="50" relative="1" as="geometry">
                        <mxPoint x="471.5789473684211" y="341.5789473684211" as="sourcePoint"/>
                        <mxPoint x="404.2105263157894" y="496.8421052631579" as="targetPoint"/>
                    </mxGeometry>
                </mxCell>
                <mxCell id="12" value="" style="endArrow=none;html=1;sketch=1;hachureGap=4;jiggle=2;curveFitting=1;fontFamily=Architects Daughter;fontSource=https%3A%2F%2Ffonts.googleapis.com%2Fcss%3Ffamily%3DArchitects%2BDaughter;fontSize=16;" edge="1" parent="20">
                    <mxGeometry width="50" height="50" relative="1" as="geometry">
                        <mxPoint x="589.4736842105262" y="496.8421052631579" as="sourcePoint"/>
                        <mxPoint x="522.1052631578947" y="341.5789473684211" as="targetPoint"/>
                    </mxGeometry>
                </mxCell>
                <mxCell id="13" value="Algae" style="text;html=1;strokeColor=none;fillColor=none;align=center;verticalAlign=middle;whiteSpace=wrap;rounded=0;sketch=1;hachureGap=4;jiggle=2;curveFitting=1;fontFamily=Architects Daughter;fontSource=https%3A%2F%2Ffonts.googleapis.com%2Fcss%3Ffamily%3DArchitects%2BDaughter;fontSize=20;" vertex="1" parent="20">
                    <mxGeometry x="538.9473684210527" y="496.8421052631579" width="101.05263157894736" height="93.15789473684211" as="geometry"/>
                </mxCell>
                <mxCell id="15" value="Flowers" style="text;html=1;strokeColor=none;fillColor=none;align=center;verticalAlign=middle;whiteSpace=wrap;rounded=0;sketch=1;hachureGap=4;jiggle=2;curveFitting=1;fontFamily=Architects Daughter;fontSource=https%3A%2F%2Ffonts.googleapis.com%2Fcss%3Ffamily%3DArchitects%2BDaughter;fontSize=20;" vertex="1" parent="20">
                    <mxGeometry y="496.8421052631579" width="101.05263157894736" height="93.15789473684211" as="geometry"/>
                </mxCell>
                <mxCell id="16" value="" style="endArrow=none;html=1;sketch=1;hachureGap=4;jiggle=2;curveFitting=1;fontFamily=Architects Daughter;fontSource=https%3A%2F%2Ffonts.googleapis.com%2Fcss%3Ffamily%3DArchitects%2BDaughter;fontSize=16;exitX=0;exitY=1;exitDx=0;exitDy=0;" edge="1" parent="20">
                    <mxGeometry width="50" height="50" relative="1" as="geometry">
                        <mxPoint x="117.89473684210527" y="341.5789473684211" as="sourcePoint"/>
                        <mxPoint x="50.52631578947368" y="496.8421052631579" as="targetPoint"/>
                    </mxGeometry>
                </mxCell>
                <mxCell id="17" value="" style="endArrow=none;html=1;sketch=1;hachureGap=4;jiggle=2;curveFitting=1;fontFamily=Architects Daughter;fontSource=https%3A%2F%2Ffonts.googleapis.com%2Fcss%3Ffamily%3DArchitects%2BDaughter;fontSize=16;" edge="1" parent="20">
                    <mxGeometry width="50" height="50" relative="1" as="geometry">
                        <mxPoint x="218.9473684210526" y="496.8421052631579" as="sourcePoint"/>
                        <mxPoint x="151.57894736842104" y="341.5789473684211" as="targetPoint"/>
                    </mxGeometry>
                </mxCell>
                <mxCell id="18" value="Trees" style="text;html=1;strokeColor=none;fillColor=none;align=center;verticalAlign=middle;whiteSpace=wrap;rounded=0;sketch=1;hachureGap=4;jiggle=2;curveFitting=1;fontFamily=Architects Daughter;fontSource=https%3A%2F%2Ffonts.googleapis.com%2Fcss%3Ffamily%3DArchitects%2BDaughter;fontSize=20;" vertex="1" parent="20">
                    <mxGeometry x="168.42105263157893" y="496.8421052631579" width="101.05263157894736" height="93.15789473684211" as="geometry"/>
                </mxCell>
            </root>
        </mxGraphModel>
    </diagram>
</mxfile>